<?xml version="1.0" standalone="no"?>
<!DOCTYPE svg PUBLIC "-//W3C//DTD SVG 20010904//EN"
 "http://www.w3.org/TR/2001/REC-SVG-20010904/DTD/svg10.dtd">
<svg version="1.0" xmlns="http://www.w3.org/2000/svg"
 width="260.000000pt" height="260.000000pt" viewBox="0 0 260.000000 260.000000"
 preserveAspectRatio="xMidYMid meet">
<metadata>
Created by potrace 1.11, written by Peter Selinger 2001-2013
</metadata>
<g transform="translate(0.000000,260.000000) scale(0.100000,-0.100000)"
fill="#000000" stroke="none">
<path d="M840 2075 c0 -13 57 -15 450 -15 393 0 450 2 450 15 0 13 -57 15
-450 15 -393 0 -450 -2 -450 -15z"/>
<path d="M650 1791 c-165 -55 -283 -178 -334 -350 -10 -33 -16 -91 -16 -147 0
-210 97 -373 275 -461 83 -42 142 -54 254 -54 130 0 212 17 324 63 l47 20 0
244 0 244 -175 0 -175 0 0 -60 0 -59 108 -3 107 -3 3 -136 3 -137 -42 -16
c-113 -46 -276 -43 -375 5 -236 114 -289 461 -99 643 139 133 343 138 516 15
13 -10 24 -3 62 37 39 42 44 51 32 64 -27 30 -121 79 -180 95 -84 21 -263 19
-335 -4z"/>
<path d="M1740 1791 c-165 -55 -283 -178 -334 -350 -10 -33 -16 -91 -16 -147
0 -210 97 -373 275 -461 83 -42 142 -54 254 -54 130 0 212 17 324 63 l47 20 0
244 0 244 -175 0 -175 0 0 -60 0 -59 108 -3 107 -3 3 -136 3 -137 -42 -16
c-113 -46 -276 -43 -375 5 -236 114 -289 461 -99 643 139 133 343 138 516 15
13 -10 24 -3 62 37 39 42 44 51 32 64 -27 30 -121 79 -180 95 -84 21 -263 19
-335 -4z"/>
<path d="M830 480 c0 -20 4 -20 448 -18 389 3 447 5 447 18 0 13 -58 15 -447
18 -444 2 -448 2 -448 -18z"/>
</g>
</svg>
